<svg xmlns="http://www.w3.org/2000/svg" width="3471" height="1673" viewBox="0 0 3471 1673">
<!-- Vectorized from user-supplied approved raster reference. Colors flattened to brand palette. -->
<path d="M 2331.00 1568.00 L 2327.00 1564.00 L 2309.00 1561.00 L 2210.00 1560.00 L 2146.00 1565.00 L 2090.00 1573.00 L 2080.00 1573.00 L 2070.00 1576.00 L 2032.00 1581.00 L 1983.00 1593.00 L 1959.00 1597.00 L 1902.00 1614.00 L 1886.00 1621.00 L 1885.00 1623.00 L 1886.00 1625.00 L 1890.00 1625.00 L 1920.00 1616.00 L 1998.00 1599.00 L 2122.00 1580.00 L 2223.00 1572.00 L 2305.00 1572.00 L 2326.00 1575.00 L 2330.00 1573.00 Z M 1302.00 1509.00 L 1295.00 1509.00 L 1277.00 1528.00 L 1262.00 1540.00 L 1245.00 1548.00 L 1237.00 1548.00 L 1231.00 1541.00 L 1232.00 1530.00 L 1251.00 1524.00 L 1268.00 1508.00 L 1273.00 1497.00 L 1272.00 1488.00 L 1266.00 1483.00 L 1253.00 1485.00 L 1239.00 1497.00 L 1231.00 1509.00 L 1223.00 1517.00 L 1217.00 1520.00 L 1209.00 1520.00 L 1206.00 1517.00 L 1206.00 1510.00 L 1212.00 1500.00 L 1211.00 1496.00 L 1206.00 1493.00 L 1198.00 1502.00 L 1193.00 1514.00 L 1177.00 1537.00 L 1166.00 1549.00 L 1164.00 1549.00 L 1162.00 1544.00 L 1166.00 1527.00 L 1173.00 1507.00 L 1176.00 1503.00 L 1176.00 1497.00 L 1170.00 1496.00 L 1166.00 1501.00 L 1161.00 1515.00 L 1155.00 1523.00 L 1127.00 1549.00 L 1120.00 1554.00 L 1117.00 1554.00 L 1115.00 1552.00 L 1116.00 1539.00 L 1132.00 1506.00 L 1132.00 1501.00 L 1125.00 1500.00 L 1114.00 1520.00 L 1109.00 1534.00 L 1106.00 1549.00 L 1107.00 1555.00 L 1113.00 1561.00 L 1122.00 1561.00 L 1140.00 1551.00 L 1151.00 1540.00 L 1153.00 1540.00 L 1154.00 1553.00 L 1159.00 1560.00 L 1165.00 1560.00 L 1176.00 1551.00 L 1192.00 1531.00 L 1194.00 1526.00 L 1197.00 1523.00 L 1200.00 1523.00 L 1203.00 1527.00 L 1208.00 1529.00 L 1222.00 1529.00 L 1222.00 1541.00 L 1224.00 1547.00 L 1231.00 1555.00 L 1238.00 1557.00 L 1248.00 1556.00 L 1261.00 1551.00 L 1282.00 1535.00 L 1301.00 1515.00 Z M 1262.00 1493.00 L 1264.00 1495.00 L 1263.00 1500.00 L 1246.00 1517.00 L 1240.00 1518.00 L 1239.00 1513.00 L 1253.00 1497.00 Z M 1644.00 1474.00 L 1632.00 1469.00 L 1607.00 1486.00 L 1610.00 1469.00 L 1604.00 1468.00 L 1589.00 1496.00 L 1555.00 1522.00 L 1554.00 1506.00 L 1565.00 1482.00 L 1559.00 1477.00 L 1513.00 1526.00 L 1528.00 1480.00 L 1523.00 1477.00 L 1505.00 1499.00 L 1488.00 1507.00 L 1490.00 1481.00 L 1475.00 1473.00 L 1412.00 1532.00 L 1408.00 1526.00 L 1417.00 1486.00 L 1411.00 1484.00 L 1364.00 1536.00 L 1361.00 1530.00 L 1377.00 1494.00 L 1371.00 1487.00 L 1354.00 1522.00 L 1354.00 1541.00 L 1371.00 1543.00 L 1402.00 1512.00 L 1396.00 1538.00 L 1330.00 1601.00 L 1317.00 1624.00 L 1318.00 1644.00 L 1337.00 1648.00 L 1361.00 1630.00 L 1401.00 1551.00 L 1440.00 1524.00 L 1442.00 1539.00 L 1454.00 1543.00 L 1483.00 1516.00 L 1504.00 1509.00 L 1508.00 1536.00 L 1520.00 1534.00 L 1541.00 1514.00 L 1553.00 1532.00 L 1581.00 1519.00 L 1579.00 1533.00 L 1585.00 1535.00 L 1623.00 1484.00 L 1633.00 1479.00 L 1640.00 1488.00 L 1646.00 1486.00 Z M 1383.00 1566.00 L 1384.00 1569.00 L 1361.00 1615.00 L 1340.00 1637.00 L 1334.00 1640.00 L 1328.00 1640.00 L 1325.00 1637.00 L 1325.00 1627.00 L 1337.00 1607.00 L 1377.00 1568.00 Z M 1456.00 1510.00 L 1467.00 1518.00 L 1467.00 1522.00 L 1455.00 1533.00 L 1450.00 1533.00 L 1448.00 1530.00 L 1450.00 1516.00 L 1452.00 1512.00 Z M 1480.00 1484.00 L 1482.00 1487.00 L 1482.00 1494.00 L 1477.00 1505.00 L 1470.00 1510.00 L 1464.00 1504.00 L 1465.00 1493.00 L 1473.00 1485.00 Z M 2508.00 1464.00 L 2505.00 1465.00 L 2500.00 1471.00 L 2504.00 1478.00 L 2508.00 1478.00 L 2513.00 1472.00 L 2512.00 1467.00 Z M 2506.00 1468.00 L 2509.00 1469.00 L 2507.00 1474.00 L 2504.00 1473.00 Z M 1146.00 1462.00 L 1140.00 1466.00 L 1135.00 1474.00 L 1134.00 1479.00 L 1136.00 1481.00 L 1140.00 1481.00 L 1147.00 1471.00 L 1149.00 1466.00 Z M 2096.00 1462.00 L 2094.00 1460.00 L 2090.00 1461.00 L 2066.00 1486.00 L 2052.00 1496.00 L 2042.00 1500.00 L 2032.00 1500.00 L 2026.00 1493.00 L 2026.00 1485.00 L 2030.00 1481.00 L 2042.00 1480.00 L 2046.00 1478.00 L 2061.00 1465.00 L 2068.00 1451.00 L 2068.00 1443.00 L 2065.00 1438.00 L 2061.00 1436.00 L 2053.00 1436.00 L 2045.00 1440.00 L 2034.00 1450.00 L 2021.00 1467.00 L 2019.00 1467.00 L 2014.00 1460.00 L 2012.00 1452.00 L 2004.00 1446.00 L 1989.00 1453.00 L 1976.00 1467.00 L 1974.00 1467.00 L 1973.00 1462.00 L 1977.00 1456.00 L 1978.00 1448.00 L 1976.00 1445.00 L 1973.00 1445.00 L 1970.00 1448.00 L 1966.00 1460.00 L 1957.00 1475.00 L 1934.00 1496.00 L 1927.00 1500.00 L 1924.00 1500.00 L 1921.00 1496.00 L 1922.00 1485.00 L 1933.00 1462.00 L 1933.00 1457.00 L 1927.00 1455.00 L 1923.00 1458.00 L 1901.00 1489.00 L 1884.00 1505.00 L 1881.00 1505.00 L 1879.00 1500.00 L 1882.00 1490.00 L 1893.00 1466.00 L 1897.00 1461.00 L 1895.00 1456.00 L 1890.00 1456.00 L 1879.00 1475.00 L 1872.00 1496.00 L 1871.00 1508.00 L 1877.00 1515.00 L 1884.00 1515.00 L 1896.00 1507.00 L 1910.00 1492.00 L 1912.00 1492.00 L 1915.00 1505.00 L 1924.00 1510.00 L 1932.00 1508.00 L 1949.00 1498.00 L 1950.00 1502.00 L 1946.00 1509.00 L 1950.00 1514.00 L 1955.00 1512.00 L 1962.00 1498.00 L 1977.00 1477.00 L 1994.00 1460.00 L 2002.00 1457.00 L 2010.00 1467.00 L 2021.00 1468.00 L 2018.00 1484.00 L 2018.00 1496.00 L 2021.00 1502.00 L 2029.00 1508.00 L 2041.00 1509.00 L 2058.00 1503.00 L 2073.00 1492.00 L 2093.00 1471.00 L 2096.00 1466.00 Z M 2057.00 1445.00 L 2059.00 1447.00 L 2059.00 1451.00 L 2054.00 1458.00 L 2043.00 1469.00 L 2038.00 1472.00 L 2033.00 1472.00 L 2033.00 1467.00 L 2050.00 1448.00 Z M 2494.00 1440.00 L 2491.00 1440.00 L 2457.00 1469.00 L 2453.00 1469.00 L 2452.00 1465.00 L 2461.00 1442.00 L 2463.00 1430.00 L 2461.00 1421.00 L 2457.00 1421.00 L 2430.00 1455.00 L 2414.00 1471.00 L 2409.00 1472.00 L 2407.00 1470.00 L 2409.00 1458.00 L 2414.00 1444.00 L 2422.00 1430.00 L 2422.00 1425.00 L 2418.00 1424.00 L 2415.00 1426.00 L 2402.00 1448.00 L 2381.00 1469.00 L 2370.00 1477.00 L 2365.00 1478.00 L 2362.00 1475.00 L 2363.00 1462.00 L 2366.00 1451.00 L 2375.00 1432.00 L 2374.00 1428.00 L 2369.00 1426.00 L 2363.00 1430.00 L 2356.00 1425.00 L 2348.00 1425.00 L 2339.00 1430.00 L 2330.00 1439.00 L 2319.00 1454.00 L 2311.00 1470.00 L 2310.00 1482.00 L 2316.00 1489.00 L 2323.00 1489.00 L 2331.00 1484.00 L 2352.00 1461.00 L 2355.00 1462.00 L 2355.00 1477.00 L 2363.00 1486.00 L 2369.00 1486.00 L 2377.00 1483.00 L 2394.00 1469.00 L 2398.00 1470.00 L 2398.00 1475.00 L 2403.00 1481.00 L 2412.00 1482.00 L 2421.00 1476.00 L 2446.00 1448.00 L 2449.00 1449.00 L 2448.00 1456.00 L 2438.00 1481.00 L 2430.00 1489.00 L 2408.00 1505.00 L 2375.00 1538.00 L 2366.00 1551.00 L 2360.00 1567.00 L 2361.00 1577.00 L 2366.00 1584.00 L 2371.00 1586.00 L 2386.00 1584.00 L 2405.00 1568.00 L 2424.00 1539.00 L 2447.00 1486.00 L 2482.00 1460.00 L 2495.00 1447.00 L 2496.00 1442.00 Z M 2427.00 1504.00 L 2428.00 1508.00 L 2423.00 1516.00 L 2419.00 1528.00 L 2403.00 1555.00 L 2387.00 1572.00 L 2380.00 1576.00 L 2372.00 1576.00 L 2369.00 1572.00 L 2370.00 1566.00 L 2383.00 1543.00 L 2405.00 1520.00 L 2424.00 1504.00 Z M 2356.00 1436.00 L 2357.00 1441.00 L 2347.00 1454.00 L 2326.00 1477.00 L 2322.00 1477.00 L 2321.00 1471.00 L 2325.00 1462.00 L 2337.00 1445.00 L 2349.00 1435.00 Z M 1065.00 1406.00 L 1060.00 1409.00 L 1053.00 1422.00 L 1018.00 1502.00 L 982.00 1601.00 L 985.00 1608.00 L 990.00 1608.00 L 1013.00 1592.00 L 1040.00 1580.00 L 1071.00 1572.00 L 1097.00 1572.00 L 1100.00 1569.00 L 1099.00 1566.00 L 1093.00 1562.00 L 1078.00 1561.00 L 1054.00 1566.00 L 1024.00 1577.00 L 1008.00 1585.00 L 1004.00 1589.00 L 998.00 1588.00 L 1000.00 1577.00 L 1017.00 1531.00 L 1028.00 1508.00 L 1040.00 1475.00 L 1069.00 1414.00 L 1069.00 1410.00 Z M 1896.00 1378.00 L 1891.00 1382.00 L 1877.00 1409.00 L 1872.00 1414.00 L 1843.00 1420.00 L 1836.00 1424.00 L 1835.00 1427.00 L 1839.00 1430.00 L 1851.00 1427.00 L 1866.00 1426.00 L 1867.00 1432.00 L 1864.00 1436.00 L 1850.00 1474.00 L 1824.00 1501.00 L 1814.00 1508.00 L 1810.00 1508.00 L 1808.00 1506.00 L 1808.00 1494.00 L 1820.00 1467.00 L 1817.00 1462.00 L 1814.00 1462.00 L 1809.00 1466.00 L 1791.00 1491.00 L 1770.00 1512.00 L 1766.00 1511.00 L 1765.00 1505.00 L 1773.00 1485.00 L 1782.00 1469.00 L 1782.00 1465.00 L 1780.00 1463.00 L 1775.00 1464.00 L 1767.00 1476.00 L 1752.00 1476.00 L 1744.00 1479.00 L 1739.00 1479.00 L 1737.00 1476.00 L 1750.00 1445.00 L 1762.00 1426.00 L 1775.00 1411.00 L 1780.00 1412.00 L 1780.00 1419.00 L 1773.00 1438.00 L 1774.00 1440.00 L 1779.00 1440.00 L 1782.00 1436.00 L 1788.00 1420.00 L 1788.00 1407.00 L 1782.00 1401.00 L 1775.00 1401.00 L 1768.00 1405.00 L 1758.00 1415.00 L 1731.00 1463.00 L 1725.00 1478.00 L 1719.00 1482.00 L 1707.00 1484.00 L 1705.00 1486.00 L 1705.00 1491.00 L 1716.00 1491.00 L 1718.00 1493.00 L 1718.00 1497.00 L 1698.00 1548.00 L 1690.00 1573.00 L 1690.00 1581.00 L 1693.00 1583.00 L 1697.00 1581.00 L 1717.00 1521.00 L 1729.00 1492.00 L 1734.00 1488.00 L 1760.00 1485.00 L 1762.00 1487.00 L 1757.00 1503.00 L 1758.00 1518.00 L 1765.00 1523.00 L 1771.00 1522.00 L 1780.00 1516.00 L 1794.00 1499.00 L 1799.00 1500.00 L 1799.00 1509.00 L 1806.00 1516.00 L 1819.00 1515.00 L 1834.00 1504.00 L 1837.00 1504.00 L 1838.00 1508.00 L 1834.00 1515.00 L 1834.00 1520.00 L 1830.00 1529.00 L 1830.00 1541.00 L 1831.00 1543.00 L 1835.00 1543.00 L 1837.00 1541.00 L 1838.00 1531.00 L 1850.00 1493.00 L 1878.00 1428.00 L 1885.00 1421.00 L 1911.00 1419.00 L 1913.00 1417.00 L 1911.00 1412.00 L 1890.00 1413.00 L 1887.00 1411.00 L 1887.00 1408.00 L 1900.00 1384.00 Z M 2206.00 1360.00 L 2202.00 1360.00 L 2199.00 1363.00 L 2184.00 1394.00 L 2178.00 1398.00 L 2148.00 1404.00 L 2144.00 1407.00 L 2146.00 1412.00 L 2150.00 1412.00 L 2157.00 1409.00 L 2176.00 1406.00 L 2177.00 1412.00 L 2167.00 1431.00 L 2146.00 1485.00 L 2137.00 1518.00 L 2140.00 1525.00 L 2145.00 1524.00 L 2146.00 1513.00 L 2149.00 1508.00 L 2150.00 1501.00 L 2162.00 1468.00 L 2165.00 1464.00 L 2170.00 1447.00 L 2186.00 1410.00 L 2192.00 1403.00 L 2208.00 1401.00 L 2217.00 1402.00 L 2221.00 1400.00 L 2221.00 1395.00 L 2218.00 1393.00 L 2196.00 1393.00 L 2202.00 1376.00 L 2208.00 1366.00 Z M 2343.00 1353.00 L 2338.00 1351.00 L 2331.00 1360.00 L 2314.00 1395.00 L 2292.00 1432.00 L 2279.00 1428.00 L 2267.00 1433.00 L 2245.00 1455.00 L 2231.00 1464.00 L 2226.00 1462.00 L 2230.00 1448.00 L 2230.00 1439.00 L 2228.00 1435.00 L 2222.00 1430.00 L 2217.00 1429.00 L 2203.00 1436.00 L 2187.00 1457.00 L 2179.00 1474.00 L 2178.00 1487.00 L 2180.00 1493.00 L 2185.00 1498.00 L 2195.00 1498.00 L 2203.00 1493.00 L 2218.00 1476.00 L 2225.00 1472.00 L 2230.00 1472.00 L 2238.00 1467.00 L 2242.00 1469.00 L 2240.00 1477.00 L 2240.00 1486.00 L 2242.00 1490.00 L 2247.00 1493.00 L 2254.00 1492.00 L 2261.00 1488.00 L 2277.00 1472.00 L 2285.00 1459.00 L 2290.00 1456.00 L 2291.00 1461.00 L 2279.00 1499.00 L 2278.00 1515.00 L 2281.00 1519.00 L 2283.00 1519.00 L 2286.00 1515.00 L 2286.00 1504.00 L 2303.00 1449.00 L 2322.00 1401.00 L 2342.00 1359.00 Z M 2196.00 1465.00 L 2200.00 1471.00 L 2207.00 1475.00 L 2207.00 1479.00 L 2195.00 1489.00 L 2190.00 1490.00 L 2187.00 1486.00 L 2189.00 1475.00 L 2192.00 1467.00 Z M 2281.00 1438.00 L 2284.00 1441.00 L 2284.00 1444.00 L 2277.00 1455.00 L 2254.00 1482.00 L 2251.00 1482.00 L 2249.00 1480.00 L 2250.00 1471.00 L 2258.00 1456.00 L 2274.00 1440.00 Z M 2218.00 1438.00 L 2223.00 1443.00 L 2222.00 1451.00 L 2218.00 1461.00 L 2213.00 1466.00 L 2210.00 1466.00 L 2204.00 1461.00 L 2203.00 1454.00 L 2208.00 1445.00 L 2214.00 1439.00 Z M 3181.00 1084.00 L 3181.00 1177.00 L 3183.00 1179.00 L 3197.00 1179.00 L 3200.00 1176.00 L 3199.00 1121.00 L 3201.00 1118.00 L 3205.00 1120.00 L 3221.00 1157.00 L 3226.00 1162.00 L 3238.00 1162.00 L 3241.00 1159.00 L 3258.00 1120.00 L 3263.00 1118.00 L 3264.00 1177.00 L 3266.00 1179.00 L 3279.00 1179.00 L 3281.00 1177.00 L 3281.00 1085.00 L 3279.00 1082.00 L 3261.00 1082.00 L 3258.00 1084.00 L 3233.00 1136.00 L 3229.00 1135.00 L 3206.00 1086.00 L 3202.00 1082.00 L 3183.00 1082.00 Z M 2933.00 1082.00 L 2931.00 1086.00 L 2932.00 1178.00 L 2935.00 1180.00 L 2993.00 1179.00 L 2995.00 1177.00 L 2995.00 1165.00 L 2993.00 1163.00 L 2954.00 1164.00 L 2951.00 1161.00 L 2951.00 1140.00 L 2954.00 1137.00 L 2985.00 1138.00 L 2989.00 1135.00 L 2989.00 1126.00 L 2986.00 1121.00 L 2953.00 1122.00 L 2951.00 1120.00 L 2951.00 1101.00 L 2953.00 1098.00 L 2991.00 1099.00 L 2995.00 1096.00 L 2995.00 1084.00 L 2993.00 1082.00 Z M 2777.00 1082.00 L 2775.00 1085.00 L 2776.00 1178.00 L 2792.00 1179.00 L 2794.00 1177.00 L 2794.00 1144.00 L 2797.00 1141.00 L 2804.00 1141.00 L 2810.00 1146.00 L 2828.00 1177.00 L 2831.00 1179.00 L 2848.00 1179.00 L 2849.00 1175.00 L 2827.00 1143.00 L 2827.00 1140.00 L 2837.00 1133.00 L 2845.00 1122.00 L 2847.00 1110.00 L 2846.00 1102.00 L 2843.00 1096.00 L 2835.00 1088.00 L 2822.00 1082.00 Z M 2794.00 1100.00 L 2798.00 1097.00 L 2821.00 1100.00 L 2827.00 1107.00 L 2827.00 1118.00 L 2822.00 1124.00 L 2817.00 1126.00 L 2796.00 1126.00 L 2793.00 1122.00 Z M 2459.00 1082.00 L 2456.00 1086.00 L 2456.00 1095.00 L 2459.00 1098.00 L 2481.00 1098.00 L 2485.00 1102.00 L 2485.00 1177.00 L 2487.00 1179.00 L 2501.00 1179.00 L 2504.00 1176.00 L 2504.00 1101.00 L 2508.00 1097.00 L 2531.00 1097.00 L 2532.00 1084.00 L 2529.00 1082.00 Z M 1894.00 1082.00 L 1892.00 1085.00 L 1893.00 1097.00 L 1917.00 1098.00 L 1921.00 1101.00 L 1920.00 1174.00 L 1922.00 1179.00 L 1937.00 1179.00 L 1940.00 1175.00 L 1939.00 1102.00 L 1943.00 1098.00 L 1967.00 1097.00 L 1968.00 1085.00 L 1966.00 1082.00 Z M 1414.00 1083.00 L 1413.00 1174.00 L 1415.00 1179.00 L 1430.00 1179.00 L 1432.00 1177.00 L 1433.00 1118.00 L 1437.00 1120.00 L 1454.00 1159.00 L 1458.00 1163.00 L 1469.00 1163.00 L 1473.00 1159.00 L 1490.00 1122.00 L 1494.00 1120.00 L 1496.00 1177.00 L 1498.00 1179.00 L 1513.00 1178.00 L 1514.00 1116.00 L 1512.00 1082.00 L 1495.00 1082.00 L 1490.00 1086.00 L 1465.00 1137.00 L 1461.00 1136.00 L 1437.00 1085.00 L 1434.00 1082.00 Z M 3369.00 1082.00 L 3367.00 1084.00 L 3367.00 1177.00 L 3369.00 1179.00 L 3429.00 1178.00 L 3430.00 1165.00 L 3427.00 1163.00 L 3387.00 1163.00 L 3385.00 1160.00 L 3385.00 1141.00 L 3387.00 1138.00 L 3422.00 1137.00 L 3424.00 1135.00 L 3424.00 1124.00 L 3421.00 1121.00 L 3386.00 1121.00 L 3385.00 1101.00 L 3388.00 1098.00 L 3428.00 1098.00 L 3430.00 1094.00 L 3429.00 1083.00 Z M 2689.00 1082.00 L 2675.00 1081.00 L 2671.00 1084.00 L 2671.00 1146.00 L 2667.00 1155.00 L 2661.00 1161.00 L 2652.00 1164.00 L 2641.00 1161.00 L 2634.00 1154.00 L 2631.00 1146.00 L 2631.00 1084.00 L 2629.00 1082.00 L 2614.00 1082.00 L 2612.00 1084.00 L 2612.00 1148.00 L 2619.00 1166.00 L 2629.00 1175.00 L 2644.00 1180.00 L 2664.00 1179.00 L 2676.00 1173.00 L 2685.00 1163.00 L 2690.00 1147.00 Z M 2300.00 1082.00 L 2298.00 1085.00 L 2298.00 1142.00 L 2299.00 1151.00 L 2303.00 1162.00 L 2316.00 1175.00 L 2326.00 1179.00 L 2346.00 1180.00 L 2358.00 1176.00 L 2369.00 1167.00 L 2377.00 1150.00 L 2377.00 1084.00 L 2375.00 1082.00 L 2361.00 1082.00 L 2359.00 1084.00 L 2359.00 1140.00 L 2358.00 1148.00 L 2354.00 1156.00 L 2344.00 1163.00 L 2332.00 1163.00 L 2327.00 1161.00 L 2318.00 1151.00 L 2318.00 1085.00 L 2314.00 1081.00 Z M 2217.00 1082.00 L 2158.00 1083.00 L 2159.00 1179.00 L 2174.00 1179.00 L 2176.00 1177.00 L 2176.00 1143.00 L 2179.00 1139.00 L 2210.00 1139.00 L 2213.00 1137.00 L 2213.00 1125.00 L 2211.00 1123.00 L 2180.00 1124.00 L 2176.00 1120.00 L 2177.00 1100.00 L 2180.00 1098.00 L 2216.00 1099.00 L 2218.00 1097.00 Z M 1751.00 1082.00 L 1750.00 1178.00 L 1811.00 1179.00 L 1813.00 1177.00 L 1813.00 1165.00 L 1811.00 1163.00 L 1771.00 1163.00 L 1768.00 1160.00 L 1768.00 1141.00 L 1771.00 1137.00 L 1805.00 1137.00 L 1807.00 1135.00 L 1807.00 1127.00 L 1804.00 1122.00 L 1770.00 1122.00 L 1768.00 1119.00 L 1768.00 1104.00 L 1772.00 1098.00 L 1810.00 1098.00 L 1813.00 1095.00 L 1812.00 1082.00 Z M 1603.00 1082.00 L 1602.00 1177.00 L 1604.00 1179.00 L 1663.00 1179.00 L 1665.00 1177.00 L 1664.00 1163.00 L 1623.00 1163.00 L 1621.00 1161.00 L 1621.00 1140.00 L 1624.00 1137.00 L 1658.00 1137.00 L 1660.00 1134.00 L 1659.00 1123.00 L 1657.00 1122.00 L 1623.00 1122.00 L 1621.00 1120.00 L 1621.00 1101.00 L 1624.00 1098.00 L 1663.00 1098.00 L 1665.00 1096.00 L 1665.00 1083.00 L 1662.00 1081.00 Z M 2869.00 191.00 L 2717.00 250.00 L 2718.00 379.00 L 2869.00 320.00 Z M 1157.00 35.00 L 595.00 373.00 L 36.00 71.00 L 37.00 1240.00 L 235.00 1173.00 L 235.00 381.00 L 596.00 580.00 L 957.00 367.00 L 958.00 1182.00 L 1158.00 1244.00 Z" fill="#2F6BFF" fill-rule="evenodd"/>
<path d="M 850.00 538.00 L 680.00 645.00 L 680.00 1088.00 L 852.00 1152.00 Z M 2827.00 412.00 L 2823.00 411.00 L 2797.00 418.00 L 2783.00 426.00 L 2770.00 430.00 L 2757.00 437.00 L 2742.00 441.00 L 2730.00 447.00 L 2726.00 451.00 L 2772.00 435.00 L 2795.00 424.00 Z" fill="#F4B400" fill-rule="evenodd"/>
<path d="M 3373.00 482.00 L 3344.00 462.00 L 3313.00 449.00 L 3283.00 442.00 L 3237.00 440.00 L 3207.00 443.00 L 3170.00 454.00 L 3146.00 466.00 L 3123.00 482.00 L 3106.00 498.00 L 3103.00 498.00 L 3101.00 496.00 L 3102.00 454.00 L 3099.00 451.00 L 2992.00 451.00 L 2967.00 453.00 L 2967.00 933.00 L 3101.00 933.00 L 3102.00 667.00 L 3107.00 637.00 L 3118.00 611.00 L 3130.00 595.00 L 3140.00 586.00 L 3152.00 578.00 L 3170.00 570.00 L 3199.00 565.00 L 3218.00 566.00 L 3233.00 569.00 L 3244.00 573.00 L 3259.00 582.00 L 3274.00 596.00 L 3282.00 607.00 L 3290.00 624.00 L 3293.00 635.00 L 3297.00 664.00 L 3298.00 933.00 L 3431.00 934.00 L 3434.00 932.00 L 3434.00 626.00 L 3432.00 605.00 L 3425.00 570.00 L 3413.00 536.00 L 3398.00 511.00 Z M 2390.00 438.00 L 2342.00 442.00 L 2308.00 450.00 L 2286.00 458.00 L 2260.00 471.00 L 2237.00 486.00 L 2203.00 517.00 L 2188.00 535.00 L 2172.00 560.00 L 2152.00 603.00 L 2144.00 632.00 L 2140.00 655.00 L 2138.00 706.00 L 2143.00 752.00 L 2148.00 774.00 L 2156.00 797.00 L 2179.00 841.00 L 2196.00 863.00 L 2217.00 885.00 L 2248.00 909.00 L 2267.00 920.00 L 2294.00 932.00 L 2336.00 944.00 L 2363.00 948.00 L 2395.00 949.00 L 2430.00 947.00 L 2469.00 940.00 L 2498.00 931.00 L 2522.00 920.00 L 2548.00 904.00 L 2572.00 884.00 L 2597.00 856.00 L 2605.00 845.00 L 2605.00 840.00 L 2506.00 783.00 L 2501.00 784.00 L 2484.00 802.00 L 2469.00 813.00 L 2454.00 821.00 L 2434.00 828.00 L 2413.00 832.00 L 2386.00 833.00 L 2354.00 827.00 L 2324.00 814.00 L 2309.00 803.00 L 2290.00 782.00 L 2279.00 762.00 L 2272.00 740.00 L 2276.00 737.00 L 2632.00 737.00 L 2634.00 735.00 L 2635.00 672.00 L 2631.00 642.00 L 2625.00 615.00 L 2607.00 567.00 L 2582.00 527.00 L 2558.00 501.00 L 2525.00 475.00 L 2483.00 454.00 L 2437.00 442.00 Z M 2274.00 635.00 L 2279.00 620.00 L 2293.00 597.00 L 2308.00 581.00 L 2323.00 570.00 L 2342.00 561.00 L 2372.00 554.00 L 2405.00 554.00 L 2437.00 561.00 L 2449.00 566.00 L 2467.00 578.00 L 2488.00 601.00 L 2499.00 623.00 L 2504.00 639.00 L 2501.00 642.00 L 2276.00 642.00 L 2274.00 640.00 Z M 2862.00 401.00 L 2764.00 441.00 L 2729.00 453.00 L 2725.00 456.00 L 2725.00 932.00 L 2727.00 934.00 L 2862.00 934.00 L 2865.00 930.00 L 2865.00 404.00 Z M 1411.00 283.00 L 1411.00 933.00 L 1548.00 934.00 L 1550.00 931.00 L 1549.00 528.00 L 1551.00 525.00 L 1555.00 527.00 L 1571.00 554.00 L 1594.00 587.00 L 1671.00 710.00 L 1686.00 731.00 L 1716.00 781.00 L 1721.00 784.00 L 1740.00 784.00 L 1745.00 781.00 L 1758.00 758.00 L 1833.00 644.00 L 1854.00 609.00 L 1878.00 575.00 L 1906.00 529.00 L 1910.00 525.00 L 1913.00 525.00 L 1913.00 931.00 L 1916.00 934.00 L 2050.00 933.00 L 2052.00 916.00 L 2052.00 285.00 L 2049.00 282.00 L 1914.00 283.00 L 1835.00 404.00 L 1735.00 564.00 L 1731.00 566.00 L 1551.00 284.00 L 1547.00 282.00 Z" fill="#111111" fill-rule="evenodd"/>
</svg>