<svg xmlns="http://www.w3.org/2000/svg" width="2096" height="830" viewBox="0 0 2096 830">
<!-- Vectorized from user-supplied approved raster reference. Colors flattened to brand palette. -->
<path d="M 1494.00 36.00 L 1342.00 95.00 L 1343.00 224.00 L 1494.00 165.00 Z" fill="#2F6BFF" fill-rule="evenodd"/>
<path d="M 1452.00 257.00 L 1448.00 256.00 L 1433.00 259.00 L 1428.00 262.00 L 1422.00 263.00 L 1408.00 271.00 L 1395.00 275.00 L 1382.00 282.00 L 1367.00 286.00 L 1355.00 292.00 L 1351.00 296.00 L 1357.00 295.00 L 1369.00 289.00 L 1376.00 288.00 L 1383.00 284.00 L 1397.00 280.00 L 1420.00 269.00 L 1426.00 268.00 Z" fill="#F4B400" fill-rule="evenodd"/>
<path d="M 1998.00 327.00 L 1969.00 307.00 L 1938.00 294.00 L 1908.00 287.00 L 1862.00 285.00 L 1832.00 288.00 L 1795.00 299.00 L 1771.00 311.00 L 1748.00 327.00 L 1731.00 343.00 L 1728.00 343.00 L 1726.00 341.00 L 1727.00 299.00 L 1724.00 296.00 L 1617.00 296.00 L 1592.00 298.00 L 1592.00 778.00 L 1726.00 778.00 L 1727.00 512.00 L 1732.00 482.00 L 1743.00 456.00 L 1755.00 440.00 L 1765.00 431.00 L 1777.00 423.00 L 1795.00 415.00 L 1824.00 410.00 L 1843.00 411.00 L 1858.00 414.00 L 1869.00 418.00 L 1884.00 427.00 L 1899.00 441.00 L 1907.00 452.00 L 1915.00 469.00 L 1918.00 480.00 L 1922.00 509.00 L 1923.00 778.00 L 2056.00 779.00 L 2059.00 777.00 L 2059.00 471.00 L 2057.00 450.00 L 2050.00 415.00 L 2038.00 381.00 L 2023.00 356.00 L 2014.00 344.00 Z M 1015.00 283.00 L 967.00 287.00 L 933.00 295.00 L 928.00 298.00 L 911.00 303.00 L 885.00 316.00 L 862.00 331.00 L 845.00 345.00 L 828.00 362.00 L 813.00 380.00 L 797.00 405.00 L 777.00 448.00 L 769.00 477.00 L 765.00 500.00 L 763.00 551.00 L 764.00 570.00 L 768.00 597.00 L 773.00 619.00 L 780.00 636.00 L 781.00 642.00 L 804.00 686.00 L 821.00 708.00 L 842.00 730.00 L 857.00 743.00 L 873.00 754.00 L 892.00 765.00 L 919.00 777.00 L 961.00 789.00 L 988.00 793.00 L 1020.00 794.00 L 1055.00 792.00 L 1094.00 785.00 L 1123.00 776.00 L 1147.00 765.00 L 1173.00 749.00 L 1197.00 729.00 L 1210.00 716.00 L 1230.00 690.00 L 1230.00 685.00 L 1131.00 628.00 L 1126.00 629.00 L 1109.00 647.00 L 1094.00 658.00 L 1079.00 666.00 L 1059.00 673.00 L 1038.00 677.00 L 1011.00 678.00 L 979.00 672.00 L 949.00 659.00 L 934.00 648.00 L 922.00 636.00 L 915.00 627.00 L 904.00 607.00 L 897.00 585.00 L 901.00 582.00 L 1257.00 582.00 L 1259.00 580.00 L 1260.00 563.00 L 1260.00 517.00 L 1256.00 487.00 L 1250.00 460.00 L 1243.00 438.00 L 1232.00 412.00 L 1219.00 389.00 L 1207.00 372.00 L 1183.00 346.00 L 1167.00 332.00 L 1150.00 320.00 L 1108.00 299.00 L 1062.00 287.00 Z M 899.00 480.00 L 904.00 465.00 L 918.00 442.00 L 933.00 426.00 L 948.00 415.00 L 967.00 406.00 L 971.00 406.00 L 981.00 402.00 L 997.00 399.00 L 1030.00 399.00 L 1062.00 406.00 L 1074.00 411.00 L 1092.00 423.00 L 1108.00 439.00 L 1113.00 446.00 L 1124.00 468.00 L 1129.00 484.00 L 1126.00 487.00 L 901.00 487.00 L 899.00 485.00 Z M 1487.00 246.00 L 1480.00 250.00 L 1474.00 251.00 L 1454.00 259.00 L 1450.00 262.00 L 1444.00 263.00 L 1413.00 275.00 L 1409.00 278.00 L 1354.00 298.00 L 1350.00 301.00 L 1350.00 777.00 L 1352.00 779.00 L 1487.00 779.00 L 1490.00 775.00 L 1490.00 249.00 Z M 36.00 128.00 L 36.00 778.00 L 173.00 779.00 L 175.00 776.00 L 174.00 373.00 L 176.00 370.00 L 180.00 372.00 L 196.00 397.00 L 196.00 399.00 L 219.00 432.00 L 256.00 492.00 L 271.00 513.00 L 284.00 536.00 L 296.00 553.00 L 296.00 555.00 L 311.00 576.00 L 341.00 626.00 L 346.00 629.00 L 365.00 629.00 L 370.00 626.00 L 383.00 603.00 L 458.00 489.00 L 472.00 465.00 L 479.00 456.00 L 479.00 454.00 L 503.00 420.00 L 511.00 405.00 L 531.00 376.00 L 531.00 374.00 L 535.00 370.00 L 538.00 370.00 L 538.00 776.00 L 541.00 779.00 L 675.00 778.00 L 677.00 761.00 L 677.00 130.00 L 674.00 127.00 L 539.00 128.00 L 492.00 199.00 L 471.00 234.00 L 460.00 249.00 L 460.00 251.00 L 385.00 367.00 L 360.00 409.00 L 356.00 411.00 L 347.00 399.00 L 347.00 397.00 L 311.00 342.00 L 298.00 319.00 L 291.00 310.00 L 279.00 289.00 L 272.00 280.00 L 176.00 129.00 L 172.00 127.00 Z" fill="#111111" fill-rule="evenodd"/>
</svg>