<svg xmlns="http://www.w3.org/2000/svg" width="3471" height="1198" viewBox="0 0 3471 1198">
<!-- Vectorized from user-supplied approved raster reference. Inverted dark wordmark to white for black/dark backgrounds; blue and gold retained. -->
<path d="M 3181.00 1084.00 L 3181.00 1177.00 L 3183.00 1179.00 L 3197.00 1179.00 L 3200.00 1176.00 L 3199.00 1121.00 L 3201.00 1118.00 L 3205.00 1120.00 L 3221.00 1157.00 L 3226.00 1162.00 L 3238.00 1162.00 L 3241.00 1159.00 L 3258.00 1120.00 L 3260.00 1118.00 L 3263.00 1118.00 L 3264.00 1177.00 L 3266.00 1179.00 L 3279.00 1179.00 L 3281.00 1177.00 L 3281.00 1085.00 L 3279.00 1082.00 L 3261.00 1082.00 L 3258.00 1084.00 L 3233.00 1136.00 L 3229.00 1135.00 L 3227.00 1128.00 L 3206.00 1086.00 L 3202.00 1082.00 L 3183.00 1082.00 Z M 2933.00 1082.00 L 2931.00 1086.00 L 2932.00 1178.00 L 2935.00 1180.00 L 2993.00 1179.00 L 2995.00 1177.00 L 2995.00 1165.00 L 2993.00 1163.00 L 2954.00 1164.00 L 2951.00 1161.00 L 2951.00 1140.00 L 2954.00 1137.00 L 2985.00 1138.00 L 2989.00 1135.00 L 2989.00 1126.00 L 2986.00 1121.00 L 2953.00 1122.00 L 2951.00 1120.00 L 2951.00 1101.00 L 2953.00 1098.00 L 2991.00 1099.00 L 2995.00 1096.00 L 2995.00 1084.00 L 2993.00 1082.00 Z M 2777.00 1082.00 L 2775.00 1085.00 L 2776.00 1178.00 L 2792.00 1179.00 L 2794.00 1177.00 L 2794.00 1144.00 L 2797.00 1141.00 L 2804.00 1141.00 L 2810.00 1146.00 L 2828.00 1177.00 L 2831.00 1179.00 L 2848.00 1179.00 L 2849.00 1175.00 L 2827.00 1143.00 L 2827.00 1140.00 L 2837.00 1133.00 L 2845.00 1122.00 L 2847.00 1110.00 L 2846.00 1102.00 L 2843.00 1096.00 L 2835.00 1088.00 L 2822.00 1082.00 Z M 2794.00 1100.00 L 2798.00 1097.00 L 2814.00 1098.00 L 2821.00 1100.00 L 2827.00 1107.00 L 2827.00 1118.00 L 2822.00 1124.00 L 2817.00 1126.00 L 2796.00 1126.00 L 2793.00 1122.00 Z M 2459.00 1082.00 L 2456.00 1086.00 L 2456.00 1095.00 L 2459.00 1098.00 L 2481.00 1098.00 L 2485.00 1102.00 L 2485.00 1177.00 L 2487.00 1179.00 L 2501.00 1179.00 L 2504.00 1176.00 L 2504.00 1101.00 L 2508.00 1097.00 L 2531.00 1097.00 L 2532.00 1084.00 L 2529.00 1082.00 Z M 1894.00 1082.00 L 1892.00 1085.00 L 1893.00 1097.00 L 1917.00 1098.00 L 1921.00 1101.00 L 1920.00 1174.00 L 1922.00 1179.00 L 1937.00 1179.00 L 1940.00 1175.00 L 1939.00 1102.00 L 1943.00 1098.00 L 1967.00 1097.00 L 1968.00 1085.00 L 1966.00 1082.00 Z M 1414.00 1083.00 L 1413.00 1174.00 L 1415.00 1179.00 L 1430.00 1179.00 L 1432.00 1177.00 L 1433.00 1118.00 L 1437.00 1120.00 L 1446.00 1142.00 L 1454.00 1156.00 L 1454.00 1159.00 L 1458.00 1163.00 L 1469.00 1163.00 L 1473.00 1159.00 L 1490.00 1122.00 L 1494.00 1120.00 L 1496.00 1177.00 L 1498.00 1179.00 L 1513.00 1178.00 L 1514.00 1116.00 L 1512.00 1082.00 L 1495.00 1082.00 L 1490.00 1086.00 L 1465.00 1137.00 L 1461.00 1136.00 L 1456.00 1123.00 L 1437.00 1085.00 L 1434.00 1082.00 Z M 3367.00 1084.00 L 3367.00 1177.00 L 3369.00 1179.00 L 3429.00 1178.00 L 3430.00 1165.00 L 3427.00 1163.00 L 3387.00 1163.00 L 3385.00 1160.00 L 3385.00 1141.00 L 3387.00 1138.00 L 3412.00 1138.00 L 3422.00 1137.00 L 3424.00 1135.00 L 3424.00 1124.00 L 3421.00 1121.00 L 3386.00 1121.00 L 3385.00 1101.00 L 3388.00 1098.00 L 3428.00 1098.00 L 3430.00 1094.00 L 3429.00 1083.00 L 3372.00 1081.00 Z M 2689.00 1082.00 L 2675.00 1081.00 L 2671.00 1084.00 L 2671.00 1146.00 L 2667.00 1155.00 L 2661.00 1161.00 L 2652.00 1164.00 L 2641.00 1161.00 L 2634.00 1154.00 L 2631.00 1146.00 L 2631.00 1084.00 L 2629.00 1082.00 L 2614.00 1082.00 L 2612.00 1084.00 L 2612.00 1148.00 L 2615.00 1159.00 L 2619.00 1166.00 L 2629.00 1175.00 L 2644.00 1180.00 L 2664.00 1179.00 L 2676.00 1173.00 L 2685.00 1163.00 L 2690.00 1147.00 Z M 2300.00 1082.00 L 2298.00 1085.00 L 2298.00 1142.00 L 2299.00 1151.00 L 2303.00 1162.00 L 2316.00 1175.00 L 2326.00 1179.00 L 2346.00 1180.00 L 2358.00 1176.00 L 2369.00 1167.00 L 2374.00 1159.00 L 2377.00 1150.00 L 2377.00 1084.00 L 2375.00 1082.00 L 2361.00 1082.00 L 2359.00 1084.00 L 2359.00 1140.00 L 2358.00 1148.00 L 2354.00 1156.00 L 2344.00 1163.00 L 2332.00 1163.00 L 2327.00 1161.00 L 2318.00 1151.00 L 2318.00 1085.00 L 2314.00 1081.00 Z M 2217.00 1082.00 L 2214.00 1081.00 L 2158.00 1083.00 L 2159.00 1179.00 L 2174.00 1179.00 L 2176.00 1177.00 L 2176.00 1143.00 L 2179.00 1139.00 L 2210.00 1139.00 L 2213.00 1137.00 L 2213.00 1125.00 L 2211.00 1123.00 L 2180.00 1124.00 L 2176.00 1120.00 L 2177.00 1100.00 L 2180.00 1098.00 L 2216.00 1099.00 L 2218.00 1097.00 Z M 1751.00 1082.00 L 1750.00 1178.00 L 1811.00 1179.00 L 1813.00 1177.00 L 1813.00 1165.00 L 1811.00 1163.00 L 1771.00 1163.00 L 1768.00 1160.00 L 1768.00 1141.00 L 1771.00 1137.00 L 1805.00 1137.00 L 1807.00 1135.00 L 1807.00 1127.00 L 1804.00 1122.00 L 1770.00 1122.00 L 1768.00 1119.00 L 1768.00 1104.00 L 1772.00 1098.00 L 1810.00 1098.00 L 1813.00 1095.00 L 1812.00 1082.00 Z M 1603.00 1082.00 L 1602.00 1177.00 L 1604.00 1179.00 L 1663.00 1179.00 L 1665.00 1177.00 L 1664.00 1163.00 L 1623.00 1163.00 L 1621.00 1161.00 L 1621.00 1140.00 L 1624.00 1137.00 L 1658.00 1137.00 L 1660.00 1134.00 L 1659.00 1123.00 L 1657.00 1122.00 L 1623.00 1122.00 L 1621.00 1120.00 L 1621.00 1101.00 L 1624.00 1098.00 L 1663.00 1098.00 L 1665.00 1096.00 L 1665.00 1083.00 L 1662.00 1081.00 Z M 2869.00 191.00 L 2717.00 250.00 L 2718.00 379.00 L 2869.00 320.00 Z M 1157.00 35.00 L 595.00 373.00 L 36.00 71.00 L 36.00 1197.00 L 175.00 1197.00 L 235.00 1173.00 L 235.00 381.00 L 596.00 580.00 L 953.00 367.00 L 958.00 368.00 L 958.00 1182.00 L 999.00 1197.00 L 1158.00 1197.00 Z" fill="#2F6BFF" fill-rule="evenodd"/>
<path d="M 850.00 538.00 L 680.00 645.00 L 680.00 1088.00 L 852.00 1152.00 Z M 2827.00 412.00 L 2823.00 411.00 L 2808.00 414.00 L 2803.00 417.00 L 2797.00 418.00 L 2783.00 426.00 L 2770.00 430.00 L 2757.00 437.00 L 2742.00 441.00 L 2730.00 447.00 L 2726.00 451.00 L 2732.00 450.00 L 2744.00 444.00 L 2751.00 443.00 L 2758.00 439.00 L 2772.00 435.00 L 2795.00 424.00 L 2801.00 423.00 Z" fill="#F4B400" fill-rule="evenodd"/>
<path d="M 3373.00 482.00 L 3344.00 462.00 L 3313.00 449.00 L 3283.00 442.00 L 3237.00 440.00 L 3207.00 443.00 L 3170.00 454.00 L 3146.00 466.00 L 3123.00 482.00 L 3106.00 498.00 L 3103.00 498.00 L 3101.00 496.00 L 3102.00 454.00 L 3099.00 451.00 L 2992.00 451.00 L 2967.00 453.00 L 2967.00 933.00 L 3101.00 933.00 L 3102.00 667.00 L 3107.00 637.00 L 3118.00 611.00 L 3130.00 595.00 L 3140.00 586.00 L 3152.00 578.00 L 3170.00 570.00 L 3199.00 565.00 L 3218.00 566.00 L 3233.00 569.00 L 3244.00 573.00 L 3259.00 582.00 L 3274.00 596.00 L 3282.00 607.00 L 3290.00 624.00 L 3293.00 635.00 L 3297.00 664.00 L 3298.00 933.00 L 3431.00 934.00 L 3434.00 932.00 L 3434.00 626.00 L 3432.00 605.00 L 3425.00 570.00 L 3413.00 536.00 L 3398.00 511.00 L 3389.00 499.00 Z M 2390.00 438.00 L 2342.00 442.00 L 2308.00 450.00 L 2303.00 453.00 L 2286.00 458.00 L 2260.00 471.00 L 2237.00 486.00 L 2220.00 500.00 L 2203.00 517.00 L 2188.00 535.00 L 2172.00 560.00 L 2152.00 603.00 L 2144.00 632.00 L 2140.00 655.00 L 2138.00 706.00 L 2139.00 725.00 L 2143.00 752.00 L 2148.00 774.00 L 2155.00 791.00 L 2156.00 797.00 L 2179.00 841.00 L 2196.00 863.00 L 2217.00 885.00 L 2232.00 898.00 L 2248.00 909.00 L 2267.00 920.00 L 2294.00 932.00 L 2336.00 944.00 L 2363.00 948.00 L 2395.00 949.00 L 2430.00 947.00 L 2469.00 940.00 L 2498.00 931.00 L 2522.00 920.00 L 2548.00 904.00 L 2572.00 884.00 L 2585.00 871.00 L 2605.00 845.00 L 2605.00 840.00 L 2506.00 783.00 L 2501.00 784.00 L 2484.00 802.00 L 2469.00 813.00 L 2454.00 821.00 L 2434.00 828.00 L 2413.00 832.00 L 2386.00 833.00 L 2354.00 827.00 L 2324.00 814.00 L 2309.00 803.00 L 2297.00 791.00 L 2290.00 782.00 L 2279.00 762.00 L 2272.00 740.00 L 2276.00 737.00 L 2632.00 737.00 L 2634.00 735.00 L 2635.00 718.00 L 2635.00 672.00 L 2631.00 642.00 L 2625.00 615.00 L 2618.00 593.00 L 2607.00 567.00 L 2594.00 544.00 L 2582.00 527.00 L 2558.00 501.00 L 2542.00 487.00 L 2525.00 475.00 L 2483.00 454.00 L 2437.00 442.00 Z M 2274.00 635.00 L 2279.00 620.00 L 2293.00 597.00 L 2308.00 581.00 L 2323.00 570.00 L 2342.00 561.00 L 2346.00 561.00 L 2356.00 557.00 L 2372.00 554.00 L 2405.00 554.00 L 2437.00 561.00 L 2449.00 566.00 L 2467.00 578.00 L 2483.00 594.00 L 2488.00 601.00 L 2499.00 623.00 L 2504.00 639.00 L 2501.00 642.00 L 2276.00 642.00 L 2274.00 640.00 Z M 2862.00 401.00 L 2855.00 405.00 L 2849.00 406.00 L 2829.00 414.00 L 2825.00 417.00 L 2819.00 418.00 L 2788.00 430.00 L 2784.00 433.00 L 2729.00 453.00 L 2725.00 456.00 L 2725.00 932.00 L 2727.00 934.00 L 2862.00 934.00 L 2865.00 930.00 L 2865.00 404.00 Z M 1411.00 283.00 L 1411.00 933.00 L 1548.00 934.00 L 1550.00 931.00 L 1549.00 528.00 L 1551.00 525.00 L 1555.00 527.00 L 1571.00 552.00 L 1571.00 554.00 L 1594.00 587.00 L 1631.00 647.00 L 1646.00 668.00 L 1659.00 691.00 L 1671.00 708.00 L 1671.00 710.00 L 1686.00 731.00 L 1716.00 781.00 L 1721.00 784.00 L 1740.00 784.00 L 1745.00 781.00 L 1758.00 758.00 L 1833.00 644.00 L 1847.00 620.00 L 1854.00 611.00 L 1854.00 609.00 L 1878.00 575.00 L 1886.00 560.00 L 1906.00 531.00 L 1906.00 529.00 L 1910.00 525.00 L 1913.00 525.00 L 1913.00 931.00 L 1916.00 934.00 L 2050.00 933.00 L 2052.00 916.00 L 2052.00 285.00 L 2049.00 282.00 L 1914.00 283.00 L 1867.00 354.00 L 1846.00 389.00 L 1835.00 404.00 L 1835.00 406.00 L 1760.00 522.00 L 1735.00 564.00 L 1731.00 566.00 L 1722.00 554.00 L 1722.00 552.00 L 1686.00 497.00 L 1673.00 474.00 L 1666.00 465.00 L 1654.00 444.00 L 1647.00 435.00 L 1551.00 284.00 L 1547.00 282.00 Z" fill="#FFFFFF" fill-rule="evenodd"/>
</svg>